<svg width="150" height="23" viewBox="0 0 150 23" fill="none" xmlns="http://www.w3.org/2000/svg">
<mask id="mask0_1_246" style="mask-type:alpha" maskUnits="userSpaceOnUse" x="0" y="0" width="150" height="23">
<path d="M0 17.6205H7.52827C11.486 17.6205 13.5939 15.5556 13.5939 12.7507C13.5939 10.1438 11.7269 8.56932 9.72223 8.47468V8.30261C11.5548 7.88963 12.9056 6.59046 12.9056 4.51696C12.9056 1.87561 10.944 0 7.05507 0H0V17.6205ZM3.72542 14.5747V9.8943H6.84858C8.63815 9.8943 9.74804 10.9267 9.74804 12.3808C9.74804 13.7058 8.84464 14.5747 6.76254 14.5747H3.72542ZM3.72542 7.37341V3.01131H6.55605C8.20797 3.01131 9.14578 3.86308 9.14578 5.13643C9.14578 6.53024 8.01008 7.37341 6.48722 7.37341H3.72542Z" fill="#333333"/>
<path d="M24.4239 11.9936C24.4325 13.766 23.2193 14.6952 21.903 14.6952C20.5178 14.6952 19.623 13.723 19.6144 12.1657V4.40511H15.9492V12.8196C15.9578 15.9083 17.7646 17.7925 20.4231 17.7925C22.4106 17.7925 23.8388 16.7687 24.4325 15.22H24.5701V17.6205H28.0891V4.40511H24.4239V11.9936Z" fill="#333333"/>
<path d="M31.0208 17.6205H34.686V10.1438C34.686 8.5177 35.8733 7.39922 37.4908 7.39922C37.9984 7.39922 38.6953 7.48525 39.0395 7.5971V4.34489C38.7125 4.26746 38.2565 4.21583 37.8866 4.21583C36.4067 4.21583 35.1936 5.07621 34.7118 6.71092H34.5741V4.40511H31.0208V17.6205Z" fill="#333333"/>
<path d="M46.2731 22.8515C50.0501 22.8515 52.7345 21.1308 52.7345 17.7495V4.40511H49.0951V6.62488H48.9574C48.467 5.54941 47.3915 4.23304 45.1804 4.23304C42.2809 4.23304 39.8289 6.48722 39.8289 10.987C39.8289 15.3835 42.2121 17.4312 45.189 17.4312C47.2969 17.4312 48.4756 16.3729 48.9574 15.2802H49.1123V17.6979C49.1123 19.5133 47.9508 20.2188 46.3591 20.2188C44.7416 20.2188 43.9242 19.5133 43.6231 18.7131L40.2332 19.1691C40.672 21.2512 42.7111 22.8515 46.2731 22.8515ZM46.3505 14.678C44.5523 14.678 43.5715 13.2498 43.5715 10.9698C43.5715 8.72419 44.5351 7.14971 46.3505 7.14971C48.1315 7.14971 49.1295 8.65536 49.1295 10.9698C49.1295 13.3014 48.1143 14.678 46.3505 14.678Z" fill="#333333"/>
<path d="M64.1258 11.9936C64.1344 13.766 62.9213 14.6952 61.6049 14.6952C60.2197 14.6952 59.3249 13.723 59.3163 12.1657V4.40511H55.6511V12.8196C55.6597 15.9083 57.4665 17.7925 60.1251 17.7925C62.1125 17.7925 63.5408 16.7687 64.1344 15.22H64.2721V17.6205H67.791V4.40511H64.1258V11.9936Z" fill="#333333"/>
<path d="M76.7454 17.8786C80.0148 17.8786 82.2173 16.2869 82.7336 13.8348L79.3437 13.6111C78.9737 14.6178 78.0273 15.1426 76.8056 15.1426C74.973 15.1426 73.8115 13.9295 73.8115 11.9592V11.9506H82.811V10.944C82.811 6.45281 80.0922 4.23304 76.5991 4.23304C72.7102 4.23304 70.1893 6.99484 70.1893 11.073C70.1893 15.263 72.6758 17.8786 76.7454 17.8786ZM73.8115 9.67921C73.8889 8.17355 75.0332 6.96903 76.6593 6.96903C78.251 6.96903 79.3523 8.10472 79.3609 9.67921H73.8115Z" fill="#333333"/>
<path d="M85.2028 17.6205H88.868V10.1438C88.868 8.5177 90.0553 7.39922 91.6728 7.39922C92.1805 7.39922 92.8774 7.48525 93.2215 7.5971V4.34489C92.8946 4.26746 92.4386 4.21583 92.0686 4.21583C90.5888 4.21583 89.3756 5.07621 88.8938 6.71092H88.7562V4.40511H85.2028V17.6205Z" fill="#333333"/>
<path d="M100.241 17.6205H102.626V14.4157L103.799 12.9841L106.888 17.6205H109.74L105.506 11.3927L109.69 6.34337H106.833L102.774 11.3156H102.626V6.34337H100.241V17.6205Z" fill="#333333"/>
<path d="M114.122 17.7857C116.214 17.7857 117.624 16.767 117.954 15.1976L115.785 15.0545C115.548 15.6987 114.942 16.0346 114.16 16.0346C112.987 16.0346 112.244 15.2582 112.244 13.9973V13.9917H118.004V13.3475C118.004 10.4732 116.264 9.05251 114.028 9.05251C111.539 9.05251 109.926 10.8201 109.926 13.4301C109.926 16.1117 111.517 17.7857 114.122 17.7857ZM112.244 12.5381C112.294 11.5744 113.026 10.8035 114.067 10.8035C115.085 10.8035 115.79 11.5304 115.796 12.5381H112.244Z" fill="#333333"/>
<path d="M121.88 12.7308C121.886 11.6405 122.535 11.0018 123.483 11.0018C124.424 11.0018 124.991 11.6185 124.986 12.6537V17.6205H127.332V12.2352C127.332 10.2639 126.175 9.05251 124.413 9.05251C123.158 9.05251 122.249 9.66923 121.869 10.6549H121.77V9.16264H119.535V17.6205H121.88V12.7308Z" fill="#333333"/>
<path d="M129.136 17.6205H136.245V15.7483H132.214V15.6877L136.102 10.6879V9.16264H129.279V11.0348H133.277V11.0954L129.136 16.2218V17.6205Z" fill="#333333"/>
<path d="M138.039 17.6205H140.384V9.16264H138.039V17.6205ZM139.217 8.07237C139.916 8.07237 140.489 7.53825 140.489 6.88299C140.489 6.23324 139.916 5.69912 139.217 5.69912C138.523 5.69912 137.951 6.23324 137.951 6.88299C137.951 7.53825 138.523 8.07237 139.217 8.07237Z" fill="#333333"/>
<path d="M146.118 17.7857C148.21 17.7857 149.62 16.767 149.95 15.1976L147.781 15.0545C147.544 15.6987 146.938 16.0346 146.157 16.0346C144.984 16.0346 144.24 15.2582 144.24 13.9973V13.9917H150V13.3475C150 10.4732 148.26 9.05251 146.024 9.05251C143.536 9.05251 141.922 10.8201 141.922 13.4301C141.922 16.1117 143.513 17.7857 146.118 17.7857ZM144.24 12.5381C144.29 11.5744 145.022 10.8035 146.063 10.8035C147.082 10.8035 147.786 11.5304 147.792 12.5381H144.24Z" fill="#333333"/>
</mask>
<g mask="url(#mask0_1_246)">
<rect x="-5.8147" y="-8.72217" width="158.937" height="36.8268" fill="url(#paint0_linear_1_246)"/>
</g>
<defs>
<linearGradient id="paint0_linear_1_246" x1="93.7501" y1="28.3333" x2="97.0834" y2="28.3333" gradientUnits="userSpaceOnUse">
<stop stop-color="#333333"/>
<stop offset="1" stop-color="#EB5757"/>
</linearGradient>
</defs>
</svg>
